<svg xmlns="http://www.w3.org/2000/svg" version="1.1" xmlns:xlink="http://www.w3.org/1999/xlink" xmlns:svgjs="http://svgjs.dev/svgjs" width="1500" height="1500" viewBox="0 0 1500 1500"><rect width="1500" height="1500" fill="#444444"></rect><g transform="matrix(0.6666666666666666,0,0,0.6666666666666666,249.85778443113782,249.85778443113765)"><svg viewBox="0 0 334 334" data-background-color="#444444" preserveAspectRatio="xMidYMid meet" height="1500" width="1500" xmlns="http://www.w3.org/2000/svg" xmlns:xlink="http://www.w3.org/1999/xlink"><g id="tight-bounds" transform="matrix(1,0,0,1,0.04749999999998522,0.04750000000001364)"><svg viewBox="0 0 333.90454557049503 333.90454557049503" height="333.90454557049503" width="333.90454557049503"><g><svg></svg></g><g><svg viewBox="0 0 333.90454557049503 333.90454557049503" height="333.90454557049503" width="333.90454557049503"><g><path d="M0 166.952c0-92.205 74.747-166.952 166.952-166.952 92.205 0 166.952 74.747 166.953 166.952 0 92.205-74.747 166.952-166.953 166.953-92.205 0-166.952-74.747-166.952-166.953zM166.952 320.692c84.908 0 153.74-68.832 153.74-153.74 0-84.908-68.832-153.74-153.74-153.739-84.908 0-153.74 68.832-153.739 153.739 0 84.908 68.832 153.74 153.739 153.74z" data-fill-palette-color="tertiary" fill="#f4ce14" stroke="transparent"></path><ellipse rx="160.27418187383762" ry="160.27418187383762" cx="166.95227278524752" cy="166.95227278524752" fill="#f4ce14" stroke="transparent" stroke-width="0" fill-opacity="1" data-fill-palette-color="tertiary"></ellipse></g><g transform="matrix(1,0,0,1,117.43322969583957,71.17305217166896)"><svg viewBox="0 0 99.03808617881589 191.55844122715712" height="191.55844122715712" width="99.03808617881589"><g><svg viewBox="0 0 128.68898221958196 248.90889745772745" height="191.55844122715712" width="99.03808617881589"><g><svg viewBox="0 0 128.68898221958196 248.90889745772745" height="248.90889745772745" width="128.68898221958196"><g id="textblocktransform"><svg viewBox="0 0 128.68898221958196 248.90889745772745" height="248.90889745772745" width="128.68898221958196" id="textblock"><g><svg viewBox="0 0 128.68898221958196 190.3746100603733" height="190.3746100603733" width="128.68898221958196"><g transform="matrix(1,0,0,1,0,0)"><svg width="128.68898221958196" viewBox="2.25 -26.05 18.15 26.85" height="190.3746100603733" data-palette-color="#444444"><path d="M6.8-8.9L2.25-8.9 2.25-16.35 6.8-16.35 6.8-8.9ZM6.8-16.3L2.25-16.3Q2.25-19.1 3.48-21.3 4.7-23.5 6.78-24.78 8.85-26.05 11.5-26.05L11.5-26.05 11.5-22.1Q9.3-22.1 8.05-20.6 6.8-19.1 6.8-16.3L6.8-16.3ZM20.4-18.6L16.15-17.75Q15.9-20 14.58-21.05 13.25-22.1 11.45-22.1L11.45-22.1 11.45-26.05Q13.8-26.05 15.7-25.1 17.6-24.15 18.85-22.48 20.1-20.8 20.4-18.6L20.4-18.6ZM2.25-8.95L2.25-8.95 6.8-8.95Q6.8-6.2 8.05-4.67 9.3-3.15 11.5-3.15L11.5-3.15 11.5 0.8Q8.85 0.8 6.78-0.48 4.7-1.75 3.48-3.95 2.25-6.15 2.25-8.95ZM16.15-7.5L16.15-7.5 20.4-6.65Q20.1-4.5 18.85-2.8 17.6-1.1 15.7-0.15 13.8 0.8 11.45 0.8L11.45 0.8 11.45-3.15Q13.25-3.15 14.58-4.23 15.9-5.3 16.15-7.5Z" opacity="1" transform="matrix(1,0,0,1,0,0)" fill="#444444" class="wordmark-text-0" data-fill-palette-color="quaternary" id="text-0"></path></svg></g></svg></g><g transform="matrix(1,0,0,1,0,235.317486504986)"><svg viewBox="0 0 75.55330146111656 13.591410952741477" height="13.591410952741477" width="75.55330146111656"><g transform="matrix(1,0,0,1,0,0)"><svg width="75.55330146111656" viewBox="2.25 -37.6 212.33 38.2" height="13.591410952741477" data-palette-color="#444444"><path d="M14.5 0.6L14.5 0.6Q10.8 0.6 8.03-1.13 5.25-2.85 3.75-5.93 2.25-9 2.25-13L2.25-13Q2.25-16.75 3.78-19.85 5.3-22.95 8.15-24.78 11-26.6 14.85-26.6L14.85-26.6Q17.05-26.6 18.73-26.2 20.4-25.8 21.95-25.05L21.95-25.05 20.6-21.25Q19.2-21.95 17.93-22.28 16.65-22.6 15.1-22.6L15.1-22.6Q11.6-22.6 9.22-20.08 6.85-17.55 6.85-13.1L6.85-13.1Q6.85-10.4 7.85-8.2 8.85-6 10.63-4.7 12.4-3.4 14.8-3.4L14.8-3.4Q16.7-3.4 18.05-3.83 19.4-4.25 20.95-5.05L20.95-5.05 22.35-1.25Q20.8-0.4 18.88 0.1 16.95 0.6 14.5 0.6ZM38.05 0.6L38.05 0.6Q34.35 0.6 31.4-1.13 28.45-2.85 26.77-5.93 25.1-9 25.1-13L25.1-13Q25.1-17.2 26.8-20.25 28.5-23.3 31.45-24.95 34.4-26.6 38.05-26.6L38.05-26.6Q41.7-26.6 44.62-24.95 47.55-23.3 49.27-20.28 51-17.25 51-13.1L51-13.1Q51-8.95 49.3-5.88 47.6-2.8 44.67-1.1 41.75 0.6 38.05 0.6ZM38.05-3.4L38.05-3.4Q42-3.4 44.2-6.08 46.4-8.75 46.4-13L46.4-13Q46.4-15.6 45.3-17.78 44.2-19.95 42.32-21.28 40.45-22.6 38.05-22.6L38.05-22.6Q34.1-22.6 31.9-20 29.7-17.4 29.7-13.1L29.7-13.1Q29.7-10.5 30.8-8.28 31.9-6.05 33.77-4.73 35.65-3.4 38.05-3.4ZM66.84 0.6L66.84 0.6Q63.65 0.6 61-1.05 58.35-2.7 56.8-5.73 55.25-8.75 55.25-12.85L55.25-12.85Q55.25-16.8 56.82-19.9 58.4-23 61.02-24.8 63.65-26.6 66.8-26.6L66.8-26.6Q69.4-26.6 71.27-25.55 73.15-24.5 74.2-23.4L74.2-23.4 74.2-37 78.7-37 78.7-6.3Q78.7-4.4 79.62-3.83 80.55-3.25 81.65-3.25L81.65-3.25 80.7 0.25Q75.95 0.25 74.9-3.55L74.9-3.55Q73.8-2 71.82-0.7 69.84 0.6 66.84 0.6ZM67.84-3.4L67.84-3.4Q69.7-3.4 71.37-4.28 73.05-5.15 74.2-6.55L74.2-6.55 74.2-19.45Q73.25-20.65 71.55-21.68 69.84-22.7 67.8-22.7L67.8-22.7Q65.4-22.7 63.6-21.4 61.8-20.1 60.82-17.93 59.85-15.75 59.85-13L59.85-13Q59.85-10.25 60.9-8.08 61.95-5.9 63.77-4.65 65.59-3.4 67.84-3.4ZM97.54 0.6L97.54 0.6Q91.94 0.6 88.67-2.98 85.39-6.55 85.39-13L85.39-13Q85.39-16.9 86.87-19.98 88.34-23.05 90.99-24.83 93.64-26.6 97.14-26.6L97.14-26.6Q100.89-26.6 103.37-24.98 105.84-23.35 107.09-20.6 108.34-17.85 108.34-14.55L108.34-14.55Q108.34-12.8 108.19-11.15L108.19-11.15 89.99-11.15Q90.44-7.5 92.54-5.45 94.64-3.4 98.09-3.4L98.09-3.4Q100.34-3.4 102.14-3.88 103.94-4.35 105.59-5.1L105.59-5.1 106.64-1.25Q104.84-0.45 102.59 0.08 100.34 0.6 97.54 0.6ZM89.94-14.8L89.94-14.8 104.19-14.8Q104.19-18.6 102.29-20.65 100.39-22.7 97.04-22.7L97.04-22.7Q94.14-22.7 92.24-20.68 90.34-18.65 89.94-14.8ZM119.34 0L114.84 0 114.84-21.15 110.84-21.15 110.84-25.05 114.84-25.05 114.84-28.1Q114.84-32.5 117.29-35.05 119.74-37.6 123.69-37.6L123.69-37.6Q125.74-37.6 127.29-37.13 128.84-36.65 130.24-35.95L130.24-35.95 128.89-32.15Q127.84-32.7 126.64-33.15 125.44-33.6 123.99-33.6L123.99-33.6Q121.89-33.6 120.62-32.27 119.34-30.95 119.34-28.4L119.34-28.4 119.34-25.05 127.04-25.05 127.04-21.15 119.34-21.15 119.34 0ZM141.94 0.6L141.94 0.6Q138.24 0.6 135.29-1.13 132.34-2.85 130.66-5.93 128.99-9 128.99-13L128.99-13Q128.99-17.2 130.69-20.25 132.39-23.3 135.34-24.95 138.29-26.6 141.94-26.6L141.94-26.6Q145.59-26.6 148.51-24.95 151.44-23.3 153.16-20.28 154.89-17.25 154.89-13.1L154.89-13.1Q154.89-8.95 153.19-5.88 151.49-2.8 148.56-1.1 145.64 0.6 141.94 0.6ZM141.94-3.4L141.94-3.4Q145.89-3.4 148.09-6.08 150.29-8.75 150.29-13L150.29-13Q150.29-15.6 149.19-17.78 148.09-19.95 146.21-21.28 144.34-22.6 141.94-22.6L141.94-22.6Q137.99-22.6 135.79-20 133.59-17.4 133.59-13.1L133.59-13.1Q133.59-10.5 134.69-8.28 135.79-6.05 137.66-4.73 139.54-3.4 141.94-3.4ZM168.79 0.6L168.79 0.6Q166.49 0.6 164.64-0.28 162.79-1.15 161.71-3.1 160.64-5.05 160.64-8.15L160.64-8.15 160.64-37 165.14-37 165.14-8.6Q165.14-5.9 166.26-4.6 167.39-3.3 169.39-3.3L169.39-3.3Q170.34-3.3 171.26-3.53 172.19-3.75 172.84-4.05L172.84-4.05 173.94-0.4Q173.04 0 171.71 0.3 170.39 0.6 168.79 0.6ZM182.68 0L178.18 0 178.18-26 182.68-26 182.68 0ZM180.43-30.45L180.43-30.45Q179.13-30.45 178.21-31.4 177.28-32.35 177.28-33.6L177.28-33.6Q177.28-35.05 178.13-35.9 178.98-36.75 180.43-36.75L180.43-36.75Q181.73-36.75 182.66-35.83 183.58-34.9 183.58-33.6L183.58-33.6Q183.58-32.2 182.73-31.33 181.88-30.45 180.43-30.45ZM201.63 0.6L201.63 0.6Q197.93 0.6 194.98-1.13 192.03-2.85 190.36-5.93 188.68-9 188.68-13L188.68-13Q188.68-17.2 190.38-20.25 192.08-23.3 195.03-24.95 197.98-26.6 201.63-26.6L201.63-26.6Q205.28-26.6 208.21-24.95 211.13-23.3 212.86-20.28 214.58-17.25 214.58-13.1L214.58-13.1Q214.58-8.95 212.88-5.88 211.18-2.8 208.26-1.1 205.33 0.6 201.63 0.6ZM201.63-3.4L201.63-3.4Q205.58-3.4 207.78-6.08 209.98-8.75 209.98-13L209.98-13Q209.98-15.6 208.88-17.78 207.78-19.95 205.91-21.28 204.03-22.6 201.63-22.6L201.63-22.6Q197.68-22.6 195.48-20 193.28-17.4 193.28-13.1L193.28-13.1Q193.28-10.5 194.38-8.28 195.48-6.05 197.36-4.73 199.23-3.4 201.63-3.4Z" opacity="1" transform="matrix(1,0,0,1,0,0)" fill="#444444" class="slogan-text-1" data-fill-palette-color="quaternary" id="text-1"></path></svg></g></svg></g></svg></g></svg></g></svg></g></svg></g></svg></g><defs></defs></svg><rect width="333.90454557049503" height="333.90454557049503" fill="none" stroke="none" visibility="hidden"></rect></g></svg></g></svg>